<svg width="52" height="37" viewBox="0 0 52 37" fill="none" xmlns="http://www.w3.org/2000/svg">
<path fill-rule="evenodd" clip-rule="evenodd" d="M45.591 4.62272C42.0109 1.83476 37.652 0.219799 33.1138 0L32.4898 0.7099C36.5464 1.76318 40.3295 3.6704 43.5842 6.30319C39.4251 4.05571 34.8723 2.62355 30.1721 2.08456C27.1789 1.75644 24.1569 1.7863 21.171 2.17484C20.9165 2.18239 20.6633 2.21315 20.4141 2.26513C16.9203 2.68365 13.5102 3.62677 10.2998 5.0625C8.66276 5.76782 7.68549 6.29715 7.67053 6.3061C7.69896 6.27777 11.3547 2.78833 19.3425 0.533699L18.8935 0.00145621C14.3564 0.226949 9.99965 1.84129 6.4167 4.62418C2.34367 12.5806 0.148824 21.3592 0 30.2898C0 30.2898 3.74105 36.6824 13.5904 37C13.5904 37 15.2362 35.043 16.5755 33.3595C13.4519 32.5777 10.6966 30.7428 8.77785 28.1652C8.78683 28.1652 9.22675 28.4796 10.0258 28.9195C10.0707 28.9195 10.1143 28.9636 10.2041 29.0098C10.3373 29.0993 10.4717 29.1417 10.6049 29.2311C11.6537 29.8071 12.7407 30.3109 13.8582 30.7398C15.9715 31.5938 18.1658 32.2337 20.4079 32.6489C24.2182 33.3799 28.1319 33.3959 31.948 32.6955C34.1634 32.2869 36.3294 31.6458 38.4096 30.7835C40.2113 30.1064 41.9303 29.2282 43.5334 28.1652C41.5427 30.7979 38.6883 32.6511 35.4676 33.4032C36.8039 35.0434 38.4096 36.9563 38.4096 36.9563C48.2575 36.6447 52 30.2464 52 30.2971C51.8549 21.364 49.6627 12.5825 45.591 4.62272ZM22.2469 21.273C22.1803 22.1543 21.857 22.9966 21.3168 23.6976C20.7766 24.3985 20.0428 24.9277 19.2055 25.2193C18.3683 25.5109 17.464 25.5517 16.6033 25.3387C15.7425 25.1257 14.9628 24.6674 14.3598 24.0194C13.7567 23.3713 13.3562 22.5623 13.2079 21.6909C13.0595 20.8196 13.1698 19.9234 13.5246 19.1134C13.8795 18.3034 14.4638 17.6155 15.2059 17.1315C15.948 16.6475 16.8156 16.3888 17.7026 16.3889C18.3231 16.4104 18.9332 16.5537 19.4978 16.8112C20.0624 17.0686 20.5704 17.4348 20.9924 17.8888C21.4144 18.3427 21.7419 18.8764 21.9565 19.4571C22.171 20.0378 22.2684 20.6547 22.2426 21.273H22.2469ZM33.9653 26.1571C32.9801 26.2314 31.9951 26.0095 31.1391 25.5178C30.2831 25.0261 29.5959 24.2888 29.1667 23.402C28.7375 22.5151 28.5863 21.52 28.7331 20.5463C28.8798 19.5727 29.3177 18.6647 29.9894 17.9426C30.6611 17.2206 31.5354 16.7175 32.4985 16.4981C33.4617 16.2787 34.4689 16.3542 35.3887 16.7136C36.3085 17.073 37.0985 17.7001 37.6552 18.5135C38.2119 19.3268 38.5096 20.2884 38.5097 21.273C38.555 22.5216 38.1017 23.7368 37.249 24.6528C36.3962 25.5689 35.2139 26.11 33.961 26.1586L33.9653 26.1571Z" fill="white"/>
</svg>
