<svg width="51" height="37" viewBox="0 0 51 37" fill="none" xmlns="http://www.w3.org/2000/svg">
<path d="M22.9651 30.8437C23.2594 30.8443 23.547 30.9329 23.7914 31.0982C24.0359 31.2636 24.2262 31.4984 24.3385 31.7728C24.4507 32.0473 24.4797 32.3492 24.422 32.6403C24.3642 32.9314 24.2222 33.1987 24.0138 33.4085C23.8055 33.6182 23.5402 33.761 23.2515 33.8187C22.9628 33.8764 22.6636 33.8465 22.3917 33.7327C22.1198 33.619 21.8875 33.4265 21.7241 33.1796C21.5606 32.9326 21.4734 32.6424 21.4734 32.3455C21.4741 31.9469 21.6316 31.5649 21.9113 31.2834C22.191 31.0018 22.57 30.8437 22.9651 30.8437ZM46.3866 21.542C46.0923 21.5414 45.8047 21.4528 45.5603 21.2874C45.3158 21.122 45.1255 20.8873 45.0132 20.6128C44.901 20.3383 44.8719 20.0365 44.9297 19.7453C44.9875 19.4542 45.1295 19.1869 45.3379 18.9772C45.5462 18.7674 45.8115 18.6247 46.1002 18.567C46.3889 18.5093 46.6881 18.5392 46.96 18.6529C47.2318 18.7667 47.4642 18.9592 47.6276 19.2061C47.7911 19.453 47.8783 19.7432 47.8783 20.0401C47.8775 20.4387 47.72 20.8207 47.4404 21.1023C47.1607 21.3838 46.7817 21.542 46.3866 21.542ZM46.3866 15.3886C45.1633 15.3889 43.9901 15.8787 43.1243 16.7504C42.2584 17.6222 41.7707 18.8047 41.7679 20.0387C41.7683 20.5424 41.8507 21.0428 42.0119 21.5196L26.7558 29.6983C26.2981 29.0318 25.6757 28.4975 24.9502 28.1483C24.2248 27.7991 23.4216 27.6472 22.62 27.7074C21.8184 27.7677 21.0464 28.0382 20.3803 28.492C19.7142 28.9458 19.1772 29.5673 18.8225 30.2948L5.11586 23.0184C4.29458 22.4072 3.64152 21.5947 3.21851 20.6578C2.79551 19.7209 2.61656 18.6906 2.6986 17.6644C2.67389 17.2143 2.75596 16.7648 2.93801 16.3532C3.12006 15.9416 3.39683 15.5797 3.74534 15.2976C3.95069 15.191 4.17998 15.1402 4.41069 15.1502C4.64139 15.1601 4.86556 15.2304 5.06116 15.3542L5.15282 15.4035C8.78387 17.3303 20.6765 23.6344 21.1703 23.867C21.5574 24.0897 21.9995 24.1964 22.4446 24.1748C22.8897 24.1531 23.3195 24.0039 23.6836 23.7447L48.2539 10.8771C48.4697 10.8074 48.6597 10.6736 48.799 10.4932C48.9382 10.3128 49.0203 10.0942 49.0345 9.86598C49.017 9.6415 48.937 9.42659 48.8035 9.24607C48.6701 9.06556 48.4888 8.92682 48.2805 8.84589C46.8833 8.17029 44.7322 7.15765 42.6402 6.17036C38.162 4.05857 33.0865 1.66641 30.857 0.491202C30.2841 0.166888 29.6376 -0.00232787 28.9806 2.41888e-05C28.3236 0.00237624 27.6784 0.176209 27.1077 0.504617L26.571 0.771575C16.5398 5.76619 3.11404 12.461 2.34969 12.9308C1.62119 13.4457 1.02849 14.1324 0.623174 14.9312C0.217854 15.7299 0.0121977 16.6165 0.0241021 17.5138C-0.090968 19.0702 0.207426 20.6295 0.888544 22.0309C1.56966 23.4323 2.60887 24.6252 3.8991 25.4867L18.3878 33.0136C18.5551 34.172 19.1486 35.2244 20.0502 35.9613C20.9518 36.6982 22.0954 37.0656 23.2535 36.9904C24.4115 36.9152 25.499 36.4029 26.2995 35.5554C27.1 34.7079 27.5548 33.5875 27.5734 32.4171L43.5406 23.7059C44.1191 24.1636 44.7976 24.4752 45.5197 24.6147C46.2418 24.7542 46.9865 24.7175 47.6917 24.5078C48.3969 24.2981 49.0421 23.9214 49.5737 23.409C50.1053 22.8967 50.5078 22.2637 50.7476 21.5626C50.9875 20.8616 51.0577 20.1128 50.9525 19.3788C50.8473 18.6448 50.5697 17.9468 50.1429 17.343C49.716 16.7392 49.1523 16.247 48.4986 15.9076C47.8449 15.5681 47.1203 15.3912 46.3851 15.3915" fill="white"/>
</svg>
