<svg width="38" height="37" viewBox="0 0 38 37" fill="none" xmlns="http://www.w3.org/2000/svg">
<path fill-rule="evenodd" clip-rule="evenodd" d="M18.9963 0.00596342C14.4852 0.00685651 10.1217 1.61005 6.68623 4.52874C3.2508 7.44743 0.96765 11.4912 0.24525 15.9365C-0.477151 20.3819 0.408334 24.9389 2.74327 28.7921C5.07821 32.6454 8.71027 35.5436 12.9897 36.9682C13.94 37.1442 14.2896 36.555 14.2896 36.0538C14.2896 35.6063 14.2702 34.1146 14.2627 32.5245C8.97629 33.6716 7.86313 30.287 7.86313 30.287C7.51461 29.1397 6.76619 28.155 5.75335 27.511C4.03056 26.3325 5.88483 26.3579 5.88483 26.3579C6.48726 26.4407 7.06278 26.6598 7.56747 26.9984C8.07217 27.3371 8.49271 27.7864 8.797 28.312C9.05441 28.7798 9.40212 29.192 9.82005 29.5249C10.238 29.8577 10.7179 30.1046 11.2319 30.2512C11.746 30.3978 12.284 30.4412 12.815 30.379C13.346 30.3168 13.8594 30.1502 14.3255 29.8887C14.4112 28.9268 14.8389 28.0273 15.5313 27.3529C11.3117 26.8755 6.87548 25.2481 6.87548 17.9792C6.84989 16.0948 7.55065 14.2727 8.83285 12.8896C8.25142 11.2546 8.31715 9.45975 9.01663 7.87156C9.01663 7.87156 10.6124 7.36141 14.2463 9.81074C17.3597 8.96046 20.6448 8.96046 23.7582 9.81074C27.3846 7.35694 28.9789 7.87156 28.9789 7.87156C29.6789 9.45947 29.7457 11.2542 29.1656 12.8896C30.4485 14.2721 31.1484 16.0948 31.12 17.9792C31.12 25.2645 26.6748 26.8651 22.4448 27.335C22.8976 27.7947 23.2468 28.3456 23.4692 28.9509C23.6915 29.5562 23.7819 30.2019 23.7343 30.8449C23.7343 33.3807 23.7134 35.4258 23.7134 36.0493C23.7134 36.5535 24.0555 37.1442 25.0193 36.9592C29.2973 35.5327 32.9275 32.6334 35.2606 28.7798C37.5937 24.9262 38.4774 20.3697 37.7539 15.9252C37.0303 11.4807 34.7466 7.43813 31.3111 4.52051C27.8757 1.6029 23.5126 0.000536457 19.0022 0L18.9963 0.00596342Z" fill="white"/>
</svg>
