<svg width="1750" height="560" viewBox="0 0 1750 560" fill="none" xmlns="http://www.w3.org/2000/svg">
<path d="M333.45 231.81C308.567 205.345 273.542 192.039 238.635 193.629C243.057 184.739 246.566 175.436 249.101 165.78C258.565 129.689 257.327 96.1886 245.475 66.25C236.984 44.8191 220.798 24.8011 220.12 23.9768C219.943 23.7708 219.796 23.6236 219.619 23.447C219.471 23.2703 219.354 23.1231 219.206 22.9465C219.147 22.8876 219.088 22.8288 219.029 22.7699C218.764 22.5049 218.528 22.2694 218.263 22.0339C218.056 21.8573 217.85 21.6512 217.643 21.4746C217.378 21.2391 217.083 21.033 216.818 20.827C216.582 20.6503 216.376 20.4737 216.14 20.3265C215.845 20.1204 215.58 19.9438 215.285 19.7966C215.02 19.6494 214.784 19.4728 214.518 19.3256C214.253 19.1784 213.988 19.0607 213.722 18.9135C213.428 18.7663 213.133 18.6191 212.838 18.5013C212.602 18.3836 212.337 18.2953 212.101 18.207C211.777 18.0892 211.452 17.9715 211.128 17.8537C210.892 17.7948 210.656 17.736 210.42 17.6476C210.067 17.5593 209.713 17.471 209.359 17.3827C209.123 17.3238 208.887 17.2944 208.681 17.2649C208.298 17.2061 207.944 17.1472 207.561 17.0883C207.325 17.0589 207.118 17.0589 206.882 17.0294C206.499 17.0294 206.116 17 205.733 17C205.526 17 205.29 17 205.084 17C204.701 17 204.288 17.0294 203.905 17.0589C203.698 17.0883 203.492 17.1178 203.286 17.1178C202.873 17.1766 202.49 17.2061 202.077 17.2944C201.9 17.3238 201.723 17.3827 201.546 17.4121C201.133 17.5004 200.691 17.5888 200.278 17.7065C200.131 17.736 199.984 17.7948 199.836 17.8537C199.394 18.0009 198.952 18.1481 198.509 18.2953C198.392 18.3542 198.274 18.413 198.156 18.4425C197.684 18.6485 197.242 18.8546 196.799 19.0607C196.711 19.1195 196.593 19.1784 196.505 19.2079C196.033 19.4434 195.591 19.7083 195.148 20.0027C195.06 20.0616 194.972 20.1204 194.883 20.1793C194.441 20.4737 194.028 20.7681 193.586 21.1213C193.556 21.1508 193.527 21.1508 193.497 21.1802C193.409 21.2391 193.35 21.298 193.291 21.3863C193.026 21.6218 192.731 21.8279 192.466 22.0928L129.462 81.1163C128.99 81.5579 128.489 82.0583 127.988 82.6471C127.87 82.7354 127.752 82.8531 127.604 82.9709C127.28 83.2358 126.985 83.4714 126.69 83.7657C126.631 83.7952 126.602 83.854 126.543 83.8835L50.508 155.124C26.7452 177.379 13.0949 207.524 12.063 240.023C11.0311 272.523 22.7061 303.463 44.9948 327.19C64.4531 347.885 90.4861 361.426 118.347 365.253C123.772 365.989 129.196 366.372 134.592 366.372C136.184 366.372 137.776 366.254 139.338 366.195C135.388 374.35 131.938 383.328 129.344 393.22C111.861 459.985 135.742 501.199 143.584 514.74C150.63 526.928 153.873 530.578 158.354 535.17L159.033 535.877C159.151 535.995 159.268 536.083 159.386 536.201C163.101 540.028 168.025 542 173.007 542C177.636 542 182.294 540.293 185.95 536.878L327.908 403.906C376.966 357.923 379.413 280.736 333.45 231.81ZM143.731 123.919C145.028 122.124 154.787 109.2 163.396 101.134L202.372 64.6309C205.29 69.4294 208.15 74.8165 210.273 80.1743C219.236 102.812 219.973 127.687 212.484 156.242C207.207 176.349 196.151 194.483 179.67 210.291C171.769 209.29 164.074 207.141 157.912 204.138C145.766 198.192 138.071 190.126 132.174 177.202C123.241 157.538 138.513 131.779 143.731 123.919ZM72.5903 301.314C57.23 284.946 49.1518 263.603 49.8594 241.201C50.567 218.799 60.0013 197.986 76.364 182.648L91.7243 168.253C92.1961 176.349 94.024 184.65 97.7682 192.864C107.35 213.794 121.148 228.13 141.225 237.992C152.812 243.674 166.904 247.295 181.115 248.325C182.383 248.649 183.68 248.855 185.036 248.914C189.753 249.12 203.993 250.415 213.103 253.771C215.049 254.478 215.757 255.39 216.287 256.656C217.702 260.041 217.644 267.636 212.867 277.822C211.334 281.119 209.359 284.416 207.148 287.684C202.578 293.483 199.129 297.428 196.033 300.578C191.286 305.288 184.152 311.058 176.928 315.886C145.235 337.14 100.392 330.87 72.5903 301.314ZM302.052 376.322L175.69 494.693C165.548 476.883 154.021 448.181 165.931 402.758C173.037 375.616 188.751 357.334 200.632 346.825C203.875 343.94 206.588 341.703 209.182 339.524C209.241 339.466 209.3 339.436 209.359 339.407C220.592 330.693 230.085 320.743 237.515 310.175C237.544 310.145 237.544 310.116 237.574 310.086C238.075 309.468 238.488 308.82 238.9 308.173C242.025 303.492 244.826 298.723 247.096 293.836C255.794 275.231 257.268 256.921 251.224 242.29C249.543 238.228 247.303 234.548 244.561 231.28C267.233 231.369 289.639 240.494 305.825 257.686C337.578 291.393 335.868 344.647 302.052 376.322Z" fill="url(#paint0_linear)"/>
<g clip-path="url(#clip0)">
<path d="M618.391 384.296H543.25L537 311.05H543.861L548.502 320.122C558.864 342.456 568.962 357.121 578.795 364.119C586.327 368.553 596.975 371.319 610.696 372.397C632.377 371.319 643.208 362.98 643.208 347.378C643.208 336.618 638.159 327.668 628.061 320.549C620.244 315.179 610.614 309.667 599.173 304.012C586.653 297.829 573.461 290.16 559.597 281.007C556.096 279.258 551.454 274.925 545.652 267.989C539.891 261.032 537 251.249 537 238.597C537 220.575 543.962 206.113 557.908 195.21C571.853 184.308 590.114 178.612 612.732 178.063H684.025L690.275 251.31H683.415L678.977 243.031C668.065 221.246 657.845 206.296 648.277 198.241C640.459 192.464 630.769 189.555 619.206 189.555C608.823 189.962 600.761 193.318 594.98 199.644C590.928 204.079 588.913 209.53 588.913 215.978C588.913 218.663 589.32 221.633 590.134 224.867C592.822 233.878 597.911 240.915 605.382 245.96C612.854 251.004 621.832 255.744 632.336 260.178C644.857 265.304 658.313 272.484 672.727 281.759C687.812 289.977 695.344 304.154 695.344 324.353C695.344 342.639 688.28 357.142 674.131 367.841C659.983 378.54 641.416 384.012 618.391 384.296Z" fill="white"/>
<path d="M786.123 384.5H772.605C763.851 384.5 755.036 379.802 746.14 370.364C738.587 363.224 733.538 353.481 730.993 341.114C730.322 338.022 729.976 334.93 729.976 331.838C729.976 322.685 733.335 312.637 740.073 301.673C746.812 290.71 761.815 281.272 785.105 273.318C788.199 272.383 791.966 271.366 796.424 270.288C819.856 265.325 836.203 257.839 845.487 247.893C844.408 234.712 841.924 222.67 838.015 211.768C833.292 199.136 825.495 191.854 814.583 189.983C812.018 189.719 809.127 189.576 805.89 189.576C796.994 189.576 788.525 192.465 780.443 198.262C770.875 206.337 760.655 221.267 749.743 243.052L745.305 251.33H738.648L744.715 178.084H809.942C811.957 178.084 815.398 178.226 820.243 178.491C842.596 180.504 861.549 190.959 877.103 209.856C892.656 228.773 900.433 252.673 900.433 281.597L900.636 373.008H929.728V384.317H864.501C859.513 384.317 855.279 382.568 851.777 379.069C848.276 375.571 846.525 371.34 846.525 366.356V354.864C823.744 374.594 803.61 384.5 786.123 384.5ZM809.942 355.84C814.644 355.84 819.693 354.966 825.088 353.216C833.292 349.718 840.56 344.063 846.891 336.273V281.577C846.891 276.329 846.749 270.41 846.484 263.819L832.946 271.488C821.912 277.265 811.407 283.59 801.432 290.445C791.477 297.32 784.739 305.05 781.237 313.654C780.158 317.417 779.608 321.058 779.608 324.536C779.608 332.876 782.703 340.341 788.892 346.931C794.592 352.891 801.595 355.84 809.942 355.84Z" fill="white"/>
<path d="M1040.38 383.686H1039.97C1021.12 383.564 1003.85 379.618 988.159 371.889C972.483 364.159 959.82 352.626 950.191 337.289C940.562 321.952 935.757 302.852 935.757 279.99C935.757 255.5 940.765 235.566 950.802 220.168C960.838 204.77 973.725 193.562 989.482 186.565C1004.02 179.975 1019.43 176.68 1035.74 176.68H1104.4L1110.65 249.926H1104C1102.79 248.035 1101.31 245.289 1099.56 241.648C1095.93 234.671 1091.46 226.758 1086.14 217.93C1080.83 209.123 1075.07 202.085 1068.88 196.858C1060.67 191.06 1050.7 188.172 1038.99 188.172H1036.16C1018.13 188.172 1005.2 198.729 997.381 219.842C991.986 234.101 989.299 250.048 989.299 267.663C989.299 272.24 989.502 276.878 989.91 281.597C994.083 320.61 1010.84 344.429 1040.19 353.033C1044.51 353.989 1049.42 354.457 1054.93 354.457C1060.45 354.457 1068.27 353.684 1078.36 352.138C1088.46 350.592 1099.03 343.9 1110.08 332.062L1109.27 335.886C1102.53 351.344 1093.76 363.183 1082.9 371.4C1072.05 379.577 1057.88 383.686 1040.38 383.686Z" fill="white"/>
<path d="M1244.47 384.5H1132.17V372.987H1161.26V189.555H1132.17V178.063H1197.19C1202.18 178.063 1206.46 179.812 1210.02 183.311C1213.58 186.809 1215.37 191.122 1215.37 196.227V234.976C1220.89 224.765 1230.11 212.378 1243.04 197.834L1262.03 178.063H1315.15L1293.53 232.942L1283.84 232.535C1275.49 232.535 1265.19 233.41 1252.93 235.159C1240.68 236.908 1228.16 242.502 1215.37 251.899V372.967H1244.47V384.5Z" fill="white"/>
<path d="M1421.27 384.499H1420.86C1402.15 384.357 1384.97 380.431 1369.36 372.702C1353.74 364.972 1341.12 353.46 1331.49 338.204C1321.86 322.928 1317.06 303.93 1317.06 281.189C1317.06 256.72 1321.86 236.908 1331.49 221.754C1341.12 206.621 1353.74 195.515 1369.36 188.457C1384.97 181.398 1402.21 177.859 1421.07 177.859H1422.47C1456.67 179.08 1479.29 198.912 1490.32 237.376C1495.03 254.319 1497.39 271.487 1497.39 288.838L1448.71 289.041C1421.25 289.305 1395.39 289.427 1371.17 289.427C1373.47 304.642 1379.05 318.291 1387.94 330.393C1400.06 346.93 1416.02 355.209 1435.8 355.209C1441.32 355.209 1449.14 354.436 1459.24 352.89C1469.33 351.344 1479.9 344.652 1490.95 332.814L1489.94 336.638C1483.34 352.097 1474.63 363.935 1463.78 372.153C1452.95 380.391 1438.78 384.499 1421.27 384.499ZM1401.68 277.345L1447.12 276.938V271.101C1447.12 263.168 1446.82 253.445 1446.21 241.932C1445.6 230.419 1443.74 219.496 1440.65 209.143C1436.62 196.491 1429.07 190.165 1418.03 190.165C1403.88 190.165 1391.91 198.973 1382.08 216.608C1373.73 231.538 1369.56 249.295 1369.56 269.88L1369.76 276.938C1379.19 277.203 1389.84 277.345 1401.68 277.345Z" fill="white"/>
<path d="M1737.94 383.89H1616.76C1588.77 383.219 1566.38 373.354 1549.62 354.335C1532.87 335.297 1524.07 311.051 1523.26 281.597V279.99C1524.07 250.252 1533.01 225.844 1550.11 206.744C1567.21 187.644 1589.95 177.962 1618.37 177.698C1633.72 177.84 1645.77 179.996 1654.53 184.145L1654.33 94.1586H1625.25V82.6255H1690.48C1695.45 82.6255 1699.74 84.3748 1703.31 87.8734C1706.87 91.372 1708.66 95.6842 1708.66 100.79V372.398H1737.94V383.89ZM1621 362.695C1638.91 362.695 1650.09 355.291 1654.53 340.504V221.043C1650.09 206.235 1640.05 198.852 1624.44 198.852C1620.27 198.852 1615.89 199.665 1611.31 201.272C1598.52 207.313 1589.2 218.948 1583.34 236.177C1577.47 253.385 1574.54 268.254 1574.54 280.763C1574.54 308.081 1577.6 328.564 1583.72 342.212C1589.87 355.881 1602.29 362.695 1621 362.695Z" fill="white"/>
</g>
<defs>
<linearGradient id="paint0_linear" x1="51.8278" y1="587.269" x2="321.538" y2="-17.4994" gradientUnits="userSpaceOnUse">
<stop offset="0.0223" stop-color="#EF646D"/>
<stop offset="0.5" stop-color="#92278F"/>
<stop offset="1" stop-color="#2484C6"/>
</linearGradient>
<clipPath id="clip0">
<rect width="1200.94" height="301.875" fill="white" transform="translate(537 82.6255)"/>
</clipPath>
</defs>
</svg>
