<svg width="37" height="37" viewBox="0 0 37 37" fill="none" xmlns="http://www.w3.org/2000/svg">
<path d="M0 36.9925H36.9925V0H0V36.9925ZM9.01991 12.3806C9.03498 12.2302 9.01447 12.0784 8.96006 11.9375C8.90565 11.7965 8.81885 11.6703 8.70667 11.5691L6.38569 8.76634V8.35315H13.5918L19.1615 20.5681L24.0586 8.35315H30.9276V8.77081L28.9377 10.6682C28.8538 10.7321 28.7889 10.8177 28.75 10.9157C28.7112 11.0137 28.6997 11.1205 28.717 11.2246V25.2086C28.6997 25.3127 28.7112 25.4194 28.75 25.5175C28.7889 25.6155 28.8538 25.7011 28.9377 25.765L30.8768 27.6668V28.0845H21.135V27.6668L23.1427 25.7173C23.3396 25.5204 23.3396 25.4622 23.3396 25.1609V13.8588L17.7579 28.0293H17.0046L10.5056 13.8588V23.359C10.4789 23.5561 10.4973 23.7567 10.5596 23.9456C10.6219 24.1345 10.7264 24.3068 10.8651 24.4494L13.4754 27.6161V28.0338H6.07244V27.6161L8.68281 24.4494C8.82051 24.3068 8.92277 24.1338 8.98133 23.9444C9.03989 23.755 9.0531 23.5544 9.01991 23.359V12.3806Z" fill="white"/>
</svg>
