<svg width="109" height="24" viewBox="0 0 109 24" fill="none" xmlns="http://www.w3.org/2000/svg">
<path d="M42.4123 7.57158C43.0773 7.97408 43.6403 8.52758 43.9983 9.28238C44.4073 10.0371 44.6123 10.9428 44.6123 11.9491C44.6123 12.9554 44.4073 13.8108 43.9473 14.5655C43.5383 15.3202 42.9243 15.8737 42.1563 16.2259C41.3893 16.6284 40.4683 16.8297 39.4963 16.8297C38.9333 16.8297 38.4223 16.7291 37.9103 16.5278C37.3983 16.3769 36.9383 16.075 36.5803 15.7228V20.9556H33.6133V7.16908H36.1713L36.4263 8.27598C37.5523 7.37038 38.7803 6.91748 40.0593 6.91748C40.9283 6.91748 41.7473 7.11878 42.4123 7.57158ZM40.7753 13.8108C41.2863 13.3579 41.5423 12.7541 41.5423 11.9994C41.5423 11.2447 41.2863 10.6409 40.8263 10.1377C40.3663 9.63458 39.7523 9.43328 39.0873 9.43328C38.5243 9.43328 38.0123 9.53388 37.6033 9.78548C37.1943 9.98678 36.8873 10.339 36.6313 10.7918V13.056C36.7843 13.5089 37.0913 13.8611 37.4493 14.1127C37.8593 14.3642 38.3193 14.5152 38.8823 14.5152C39.6493 14.5152 40.2633 14.2636 40.7753 13.8108Z" fill="white"/>
<path d="M46.3486 9.3317C46.8096 8.6272 47.4236 8.0235 48.2416 7.6209C49.0606 7.2184 49.9816 6.9668 51.0046 6.9668C52.0276 6.9668 52.9486 7.1681 53.7676 7.6209C54.5346 8.0235 55.1486 8.6272 55.6086 9.382C56.0696 10.1367 56.2736 10.9418 56.2736 11.8978C56.2736 12.8538 56.0696 13.6588 55.6086 14.4135C55.1486 15.1683 54.5856 15.7721 53.7676 16.1746C52.9996 16.5771 52.0276 16.8287 51.0046 16.8287C49.9816 16.8287 49.0606 16.6274 48.2416 16.2249C47.4236 15.8224 46.8096 15.2689 46.3486 14.5142C45.9396 13.7594 45.6836 12.9041 45.6836 11.8978C45.6836 10.9418 45.9396 10.0864 46.3486 9.3317ZM49.3676 13.7091C49.7766 14.2123 50.3396 14.4135 51.0046 14.4135C51.6696 14.4135 52.2326 14.162 52.6416 13.7091C53.0506 13.2563 53.2556 12.6022 53.2556 11.8978C53.2556 11.143 53.0506 10.5392 52.6416 10.0864C52.1816 9.5832 51.6696 9.3317 50.9536 9.3317C50.2886 9.3317 49.7766 9.5832 49.3166 10.0361C48.9066 10.5392 48.7026 11.143 48.7026 11.8978C48.7026 12.6022 48.9066 13.206 49.3676 13.7091Z" fill="white"/>
<path d="M61.0842 0.0236816V16.5776H58.1172V0.0236816H61.0842Z" fill="white"/>
<path d="M73.2605 7.41992L67.2245 21.0051H64.3595L66.6105 16.1245L62.3125 7.41992H65.6895L68.1455 12.8539L70.6005 7.41992H73.2605Z" fill="white"/>
<path d="M84.6183 7.4197V16.5771C84.6183 17.4325 84.3633 18.2375 83.8513 18.942C83.3393 19.6464 82.6743 20.1999 81.8053 20.6024C80.9353 21.0049 80.0143 21.2062 78.9913 21.2062C78.2233 21.2062 77.5583 21.1055 76.9963 20.9546C76.4333 20.7533 75.9723 20.5521 75.6143 20.3508C75.2053 20.0992 74.7963 19.7973 74.3353 19.3948L76.0753 17.3822C76.4843 17.7847 76.9443 18.0866 77.3543 18.2879C77.7633 18.4891 78.3263 18.6401 78.9403 18.6401C79.7073 18.6401 80.3213 18.4388 80.8333 18.0866C81.3443 17.7344 81.6003 17.1809 81.6003 16.5268V15.2186C81.2933 15.6714 80.8843 16.074 80.2703 16.3759C79.6563 16.6778 78.9403 16.8287 78.1213 16.8287C77.3033 16.8287 76.4843 16.6274 75.7683 16.1746C75.0523 15.7721 74.4893 15.1683 74.0283 14.4136C73.6193 13.6588 73.3633 12.8538 73.3633 11.9481C73.3633 11.0424 73.5683 10.187 74.0283 9.4323C74.4893 8.6776 75.0523 8.0738 75.8193 7.6209C76.5353 7.1681 77.3033 6.9668 78.1213 6.9668C78.8883 6.9668 79.5543 7.0675 80.1673 7.2687C80.7813 7.47 81.2423 7.7719 81.5493 8.1241L81.8563 7.4197H84.6183ZM81.6003 13.055V10.7908C81.3953 10.338 81.0883 9.9858 80.6283 9.7342C80.1673 9.4826 79.6563 9.3317 79.0423 9.3317C78.3263 9.3317 77.7123 9.5832 77.2003 10.0361C76.6893 10.4889 76.4333 11.0927 76.4333 11.8475C76.4333 12.5519 76.6893 13.206 77.2003 13.7091C77.7123 14.2123 78.3263 14.4639 79.0423 14.4639C80.2193 14.4136 81.0883 13.9607 81.6003 13.055Z" fill="white"/>
<path d="M87.0712 9.33268C87.5322 8.57788 88.1462 8.02448 88.9642 7.57158C89.7832 7.16908 90.7042 6.91748 91.7272 6.91748C92.7502 6.91748 93.6712 7.11878 94.4902 7.57158C95.2572 7.97408 95.8713 8.57788 96.3313 9.33268C96.7413 10.0874 96.9962 10.8925 96.9962 11.8484C96.9962 12.8044 96.7923 13.6095 96.3313 14.3642C95.9223 15.119 95.3082 15.7228 94.4902 16.1253C93.7222 16.5278 92.7502 16.7794 91.7272 16.7794C90.7042 16.7794 89.7832 16.5781 88.9642 16.1756C88.1462 15.7731 87.5322 15.2196 87.0712 14.4649C86.6112 13.7101 86.4062 12.8548 86.4062 11.7981C86.4062 10.9428 86.6112 10.0874 87.0712 9.33268ZM90.0392 13.7101C90.4482 14.2133 91.0113 14.4145 91.6763 14.4145C92.3413 14.4145 92.9042 14.163 93.3132 13.7101C93.7222 13.2573 93.9272 12.6032 93.9272 11.8988C93.9272 11.144 93.7222 10.5402 93.3132 10.0874C92.9042 9.63458 92.3413 9.38298 91.6763 9.38298C91.0113 9.38298 90.4992 9.63458 90.0392 10.0874C89.5782 10.5402 89.3743 11.1943 89.3743 11.8988C89.4253 12.6032 89.6292 13.207 90.0392 13.7101Z" fill="white"/>
<path d="M107.486 7.7216C108.1 8.2247 108.356 8.8788 108.407 9.6839V16.5771H105.389V10.7908C105.337 9.8851 104.877 9.4323 104.007 9.4323C103.342 9.4323 102.779 9.7342 102.37 10.3883C101.961 11.0424 101.756 11.8475 101.756 12.8035V16.5771H98.7891V7.4197H101.5L101.705 8.8788C102.063 8.275 102.524 7.8222 103.138 7.47C103.751 7.1178 104.468 6.9668 105.286 6.9668C106.156 6.9668 106.923 7.2184 107.486 7.7216Z" fill="white"/>
<path d="M20.924 7.27066C20.412 6.96876 19.747 6.96876 19.184 7.27066L15.194 9.58515L12.483 11.0946L8.492 13.4092C7.98 13.7111 7.315 13.7111 6.753 13.4092L3.58099 11.5978C3.06899 11.2959 2.711 10.7424 2.711 10.1386V6.56616C2.711 5.96236 3.01799 5.40896 3.58099 5.10706L6.702 3.34596C7.213 3.04406 7.87799 3.04406 8.44099 3.34596L11.562 5.10706C12.073 5.40896 12.431 5.96236 12.431 6.56616V8.88076L15.143 7.32095V5.00635C15.143 4.40265 14.836 3.84915 14.273 3.54725L8.492 0.226455C7.98 -0.075485 7.315 -0.075485 6.753 0.226455L0.868996 3.54725C0.306996 3.84915 0 4.40265 0 5.00635V11.6984C0 12.3022 0.306996 12.8557 0.868996 13.1576L6.753 16.4784C7.264 16.7803 7.929 16.7803 8.492 16.4784L12.483 14.2142L15.194 12.6544L19.184 10.3902C19.696 10.0883 20.361 10.0883 20.924 10.3902L24.045 12.1513C24.556 12.4532 24.914 13.0066 24.914 13.6104V17.1828C24.914 17.7866 24.607 18.3401 24.045 18.642L20.924 20.4534C20.412 20.7553 19.747 20.7553 19.184 20.4534L16.064 18.6923C15.552 18.3904 15.194 17.8369 15.194 17.2332V14.9186L12.483 16.4784V18.7929C12.483 19.3967 12.79 19.9502 13.352 20.2521L19.236 23.5729C19.747 23.8748 20.412 23.8748 20.975 23.5729L26.858 20.2521C27.37 19.9502 27.728 19.3967 27.728 18.7929V12.101C27.728 11.4972 27.421 10.9437 26.858 10.6418L20.924 7.27066Z" fill="#8247E5"/>
</svg>
