<svg width="45" height="37" viewBox="0 0 45 37" fill="none" xmlns="http://www.w3.org/2000/svg">
<path d="M44.5973 4.42132C43.1511 5.04331 41.6311 5.47729 40.0746 5.71266C40.8038 5.59039 41.8774 4.2722 42.3113 3.73836C42.9824 2.92788 43.4935 1.99733 43.8174 0.996147C43.8562 0.918607 43.886 0.818715 43.8084 0.76056C43.7701 0.744147 43.7283 0.737296 43.6867 0.740674C43.6452 0.744052 43.605 0.757558 43.5699 0.779946C41.8729 1.68549 40.0696 2.37574 38.2017 2.83474C38.1368 2.85496 38.0676 2.85643 38.0019 2.83902C37.9362 2.82161 37.8767 2.78601 37.8304 2.73631C37.6866 2.56426 37.5295 2.40373 37.3607 2.25617C36.5849 1.58805 35.7062 1.04975 34.7586 0.66213C33.4935 0.149748 32.1288 -0.0699585 30.7668 0.0194427C29.4442 0.108756 28.1547 0.472862 26.9808 1.08857C25.8028 1.70309 24.7631 2.55206 23.9254 3.58328C23.057 4.65262 22.4344 5.89987 22.1017 7.23663C21.8169 8.50376 21.7845 9.81459 22.0063 11.0943C22.0346 11.3105 22.0167 11.3388 21.8199 11.3105C14.4416 10.2115 8.32493 7.57214 3.36087 1.9162C3.14466 1.67016 3.02835 1.67016 2.8509 1.93558C0.678287 5.19226 1.73253 10.4247 4.44643 12.9955C4.80878 13.3384 5.18008 13.6799 5.58121 13.9931C4.33949 13.8992 3.1287 13.5602 2.01884 12.9955C1.80262 12.8583 1.69526 12.9373 1.67587 13.1819C1.66213 13.5353 1.6816 13.8892 1.73402 14.2391C1.95138 15.9005 2.60595 17.4746 3.63085 18.8002C4.65574 20.1259 6.0142 21.1557 7.56742 21.7843C7.94735 21.9489 8.34447 22.0704 8.7514 22.1467C7.60086 22.3763 6.4201 22.4126 5.25763 22.254C5.00264 22.2048 4.90571 22.3316 5.00264 22.5761C5.60087 24.1414 6.58935 25.5278 7.87417 26.6036C9.159 27.6794 10.6975 28.4088 12.3436 28.7227C12.6761 28.7808 13.0086 28.7808 13.3427 28.8584C13.3233 28.8882 13.3024 28.8882 13.283 28.918C12.4599 30.1751 9.60135 31.11 8.26975 31.5752C5.8316 32.4446 3.23438 32.7768 0.65592 32.549C0.245852 32.4893 0.16086 32.4923 0.0490232 32.549C-0.0628134 32.6056 0.0341103 32.716 0.165332 32.8233C0.684254 33.1663 1.20914 33.469 1.75192 33.7628C3.3692 34.6245 5.07576 35.307 6.84123 35.7982C15.988 38.3242 26.2889 36.4677 33.1571 29.6457C38.5491 24.288 40.4399 16.8993 40.4399 9.50171C40.4399 9.21242 40.7829 9.05433 40.9857 8.90521C42.3494 7.8434 43.5501 6.58742 44.5495 5.17732C44.7054 4.97345 44.7836 4.72081 44.7702 4.46456V4.42578C44.7643 4.30202 44.7792 4.33931 44.5973 4.42132Z" fill="white"/>
</svg>
